<?xml version="1.0" standalone="no"?>
<!DOCTYPE svg PUBLIC "-//W3C//DTD SVG 20010904//EN"
 "http://www.w3.org/TR/2001/REC-SVG-20010904/DTD/svg10.dtd">
<svg version="1.0" xmlns="http://www.w3.org/2000/svg"
 width="1500.000000pt" height="1500.000000pt" viewBox="0 0 1500.000000 1500.000000"
 preserveAspectRatio="xMidYMid meet">

<g transform="translate(0.000000,1500.000000) scale(0.100000,-0.100000)"
fill="#000000" stroke="none">
<path d="M0 7500 l0 -7500 7500 0 7500 0 0 7500 0 7500 -7500 0 -7500 0 0
-7500z m6535 1880 c0 -18 -5 -35 -12 -37 -15 -5 -26 31 -18 58 10 31 30 17 30
-21z m240 0 c0 -35 -21 -53 -31 -26 -9 23 5 68 19 63 7 -2 12 -19 12 -37z
m240 20 c8 -26 -3 -62 -18 -57 -7 2 -13 14 -15 26 -7 45 20 71 33 31z m241
-34 c-3 -14 -13 -26 -21 -26 -20 0 -28 35 -15 61 11 19 14 20 27 6 10 -10 13
-24 9 -41z m534 11 c0 -4 -5 -18 -11 -29 -11 -21 -12 -21 -25 -3 -17 23 -18
47 -2 63 10 10 15 9 25 -5 7 -9 13 -21 13 -26z m225 3 c0 -18 -5 -35 -12 -37
-15 -5 -26 31 -18 58 10 31 30 17 30 -21z m240 -1 c0 -24 -5 -34 -15 -34 -16
0 -25 37 -16 62 10 26 31 8 31 -28z m240 21 c8 -26 -3 -62 -18 -57 -7 2 -13
14 -15 26 -7 45 20 71 33 31z m-1947 -148 l3 -43 -43 3 c-47 3 -66 31 -30 42
11 4 22 16 25 27 4 13 12 20 24 17 13 -2 19 -14 21 -46z m234 -44 l3 -93 98
-3 97 -3 0 96 c0 86 2 96 18 93 14 -3 17 -17 20 -96 l3 -92 94 0 94 0 3 93 c3
84 5 92 23 92 18 0 20 -8 23 -92 l3 -93 65 0 c70 0 104 -12 104 -35 0 -8 -11
-17 -25 -20 -14 -3 -36 -7 -49 -10 -13 -3 -43 -21 -66 -40 -61 -51 -134 -47
-202 10 -37 32 -56 31 -121 -2 -29 -14 -76 -34 -105 -43 -53 -17 -54 -17 -77
-83 -12 -36 -32 -81 -44 -100 -25 -41 -27 -89 -4 -108 25 -21 53 -89 53 -131
0 -27 -9 -47 -35 -78 -31 -37 -55 -93 -55 -127 0 -7 -6 -13 -13 -13 -27 0 -37
25 -37 97 l0 73 -90 0 c-72 0 -92 3 -97 15 -9 25 4 30 98 33 l89 4 0 94 0 94
-95 0 c-88 0 -95 1 -95 20 0 19 7 20 95 20 l95 0 0 95 0 95 -82 0 c-89 0 -115
9 -105 34 5 13 23 16 97 16 l90 0 0 45 0 45 45 0 45 0 0 88 c0 90 3 102 26
102 10 0 14 -25 16 -92z m1002 76 c3 -9 6 -51 6 -95 l0 -79 95 0 94 0 3 92 c3
79 6 93 21 96 15 3 17 -7 17 -93 l0 -96 98 3 97 3 3 93 c2 82 5 93 20 90 14
-3 17 -18 20 -96 l3 -92 44 0 45 0 0 -45 0 -45 90 0 c74 0 92 -3 97 -16 10
-25 -16 -34 -104 -34 l-83 0 0 -95 0 -95 95 0 c88 0 95 -1 95 -20 0 -19 -7
-20 -95 -20 l-95 0 0 -95 0 -95 83 0 c88 0 114 -9 104 -34 -5 -13 -23 -16 -97
-16 l-90 0 0 -73 c0 -72 -10 -97 -37 -97 -7 0 -13 6 -13 13 0 34 -24 90 -55
127 -27 32 -35 51 -35 81 0 42 27 106 54 128 24 20 19 67 -10 117 -15 25 -34
70 -44 101 -17 55 -18 56 -71 73 -30 9 -77 29 -106 43 -67 34 -80 34 -132 -5
-32 -23 -57 -33 -96 -36 -46 -4 -55 -1 -86 25 -43 38 -64 49 -111 57 -42 8
-50 29 -19 46 11 5 49 10 85 10 l66 0 0 88 c0 49 3 92 7 95 11 12 31 7 37 -9z
m713 -4 c3 -10 14 -22 25 -26 36 -11 17 -39 -30 -42 l-42 -3 0 39 c0 21 3 42
7 45 13 14 35 7 40 -13z m-2087 -30 c13 -9 12 -12 -4 -25 -11 -8 -23 -15 -26
-15 -3 0 -15 7 -26 15 -16 13 -17 16 -4 25 8 5 22 10 30 10 8 0 22 -5 30 -10z
m2240 0 c13 -9 12 -12 -4 -25 -11 -8 -23 -15 -26 -15 -3 0 -15 7 -26 15 -16
13 -17 16 -4 25 8 5 22 10 30 10 8 0 22 -5 30 -10z m-2241 -239 c20 -13 4 -31
-29 -31 -16 0 -32 5 -36 11 -7 12 13 29 36 29 8 0 21 -4 29 -9z m2240 0 c20
-13 4 -31 -29 -31 -16 0 -32 5 -36 11 -7 12 13 29 36 29 8 0 21 -4 29 -9z
m-1219 -121 l0 -110 -225 0 -225 0 0 -224 0 -225 -42 -6 c-24 -3 -72 -5 -108
-3 -65 3 -65 3 -68 34 -2 23 7 44 37 85 37 48 41 60 41 109 0 58 -24 125 -53
149 -23 18 -21 30 7 82 13 24 30 63 36 86 11 36 18 43 59 59 25 9 67 28 94 41
l48 24 43 -30 c54 -38 125 -55 171 -42 19 5 55 25 81 45 28 22 58 36 75 36
l29 0 0 -110z m250 70 c22 -17 55 -36 74 -41 47 -13 118 4 172 42 l44 30 42
-22 c24 -12 65 -30 93 -40 38 -13 51 -24 58 -46 5 -15 23 -58 40 -96 l30 -67
-20 -23 c-43 -46 -59 -100 -54 -178 0 -14 19 -50 41 -79 42 -56 52 -103 24
-114 -9 -3 -51 -6 -94 -6 -43 0 -85 3 -94 6 -14 5 -16 35 -16 230 l0 224 -225
0 -225 0 0 111 0 112 35 -6 c20 -3 53 -20 75 -37z m-1265 -200 c0 -17 -43 -25
-64 -11 -22 14 -2 32 32 29 20 -2 32 -8 32 -18z m2240 0 c0 -17 -43 -25 -64
-11 -22 14 -2 32 32 29 20 -2 32 -8 32 -18z m-1225 -234 c0 -136 -3 -167 -16
-180 -13 -13 -44 -16 -180 -16 l-164 0 0 180 0 180 180 0 180 0 0 -164z m500
-16 l0 -180 -170 0 c-157 0 -170 1 -180 19 -6 11 -10 89 -10 180 l0 161 180 0
180 0 0 -180z m-1524 25 c16 -13 17 -16 4 -25 -8 -5 -22 -10 -30 -10 -8 0 -22
5 -30 10 -13 9 -12 12 4 25 11 8 23 15 26 15 3 0 15 -7 26 -15z m2240 0 c16
-13 17 -16 4 -25 -8 -5 -22 -10 -30 -10 -8 0 -22 5 -30 10 -13 9 -12 12 4 25
11 8 23 15 26 15 3 0 15 -7 26 -15z m-1940 -391 c5 -33 18 -59 46 -92 38 -43
40 -49 36 -98 -3 -38 -13 -63 -36 -95 -18 -23 -32 -53 -32 -65 0 -12 15 -53
34 -91 19 -37 38 -84 41 -105 6 -32 11 -37 43 -43 20 -4 66 -22 104 -41 74
-37 118 -43 139 -17 20 23 89 53 125 53 17 0 46 -11 65 -25 19 -13 44 -32 56
-41 12 -8 40 -18 63 -21 22 -3 40 -11 40 -17 0 -26 -26 -36 -97 -36 l-72 0 -3
-92 c-3 -85 -5 -93 -23 -93 -18 0 -20 8 -23 93 l-3 92 -94 0 -95 0 0 -95 c0
-88 -1 -95 -20 -95 -19 0 -20 7 -20 95 l0 96 -97 -3 -98 -3 -3 -92 c-2 -85 -4
-93 -22 -93 -18 0 -20 7 -20 95 l0 95 -45 0 -45 0 0 45 0 45 -95 0 c-88 0 -95
1 -95 20 0 19 7 20 95 20 l96 0 -3 97 -3 96 -80 -2 c-85 -1 -112 7 -102 33 5
13 23 16 97 16 l90 0 0 95 0 95 -90 0 c-74 0 -92 3 -97 16 -10 25 16 34 105
34 l82 0 0 73 c0 71 10 97 36 97 7 0 16 -20 20 -46z m274 -179 l0 -225 225 0
225 0 0 -115 c0 -87 -3 -113 -12 -111 -7 3 -25 7 -40 10 -15 4 -44 21 -64 38
-28 25 -47 32 -90 36 -61 5 -130 -16 -159 -48 -21 -23 -43 -25 -70 -6 -11 7
-49 25 -84 39 -63 25 -65 26 -86 84 -12 32 -30 72 -39 88 -18 30 -18 30 18 89
20 33 36 74 37 90 2 60 -3 91 -17 111 -8 11 -26 35 -39 54 -14 19 -25 47 -25
62 l0 29 110 0 110 0 0 -225z m431 215 c18 -10 19 -23 19 -180 l0 -170 -180 0
-180 0 0 180 0 180 161 0 c91 0 169 -4 180 -10z m519 -170 l0 -180 -180 0
-180 0 0 170 c0 150 2 170 18 179 9 6 88 11 180 11 l162 0 0 -180z m310 154
c0 -31 -14 -59 -51 -102 -25 -28 -29 -41 -29 -95 0 -55 5 -71 36 -123 36 -59
36 -59 18 -89 -9 -16 -27 -57 -39 -89 -20 -53 -27 -61 -61 -73 -22 -8 -60 -25
-86 -38 -56 -29 -71 -31 -89 -8 -23 27 -91 53 -144 53 -48 0 -60 -5 -129 -54
-14 -10 -41 -22 -61 -26 l-35 -8 0 114 0 114 225 0 225 0 0 225 0 225 110 0
110 0 0 -26z m100 7 c5 -11 10 -49 10 -85 l0 -65 93 -3 c84 -3 92 -5 92 -23 0
-18 -8 -20 -92 -23 l-93 -3 0 -94 0 -94 92 -3 c79 -3 93 -6 96 -20 3 -16 -6
-18 -92 -18 l-96 0 0 -100 0 -100 95 0 c88 0 95 -1 95 -20 0 -19 -7 -20 -95
-20 l-95 0 0 -45 0 -45 -45 0 -45 0 0 -95 c0 -88 -2 -95 -20 -95 -18 0 -20 8
-22 93 l-3 92 -95 0 -95 0 -3 -92 c-2 -85 -4 -93 -22 -93 -18 0 -20 7 -20 95
l0 95 -95 0 -94 0 -3 -92 c-3 -85 -5 -93 -23 -93 -18 0 -20 8 -23 93 l-3 92
-72 0 c-71 0 -97 10 -97 36 0 6 19 15 43 18 29 5 59 19 91 46 37 31 57 40 85
40 41 0 109 -28 130 -53 19 -23 69 -21 111 5 19 12 63 31 98 43 l63 21 24 67
c12 36 32 81 44 100 29 47 26 76 -11 126 -23 32 -33 57 -36 95 -4 47 -1 55 32
94 31 39 56 94 56 130 0 19 28 14 40 -7z m-1934 -166 c16 -13 17 -16 4 -25 -8
-5 -22 -10 -30 -10 -8 0 -22 5 -30 10 -13 9 -12 12 4 25 11 8 23 15 26 15 3 0
15 -7 26 -15z m2240 0 c16 -13 17 -16 4 -25 -8 -5 -22 -10 -30 -10 -8 0 -22 5
-30 10 -13 9 -12 12 4 25 11 8 23 15 26 15 3 0 15 -7 26 -15z m-2237 -234 c20
-13 4 -31 -29 -31 -16 0 -32 5 -36 11 -7 12 13 29 36 29 8 0 21 -4 29 -9z
m2240 0 c20 -13 4 -31 -29 -31 -16 0 -32 5 -36 11 -7 12 13 29 36 29 8 0 21
-4 29 -9z m-2234 -251 c0 -18 -53 -26 -69 -10 -8 8 -7 13 4 21 22 14 65 7 65
-11z m2234 11 c20 -13 4 -31 -29 -31 -30 0 -45 13 -35 30 8 12 45 13 64 1z
m-2101 -263 c-2 -32 -8 -44 -21 -46 -12 -3 -20 4 -24 17 -3 12 -12 21 -19 21
-20 0 -30 30 -13 41 8 5 29 9 47 9 33 0 33 0 30 -42z m1981 33 c17 -11 7 -41
-13 -41 -7 0 -16 -9 -19 -21 -8 -31 -41 -21 -45 14 -2 16 -1 35 2 43 6 16 53
19 75 5z m-2113 -12 c7 -12 -13 -29 -36 -29 -23 0 -43 17 -36 29 4 6 20 11 36
11 16 0 32 -5 36 -11z m2240 0 c8 -14 -14 -29 -43 -29 -24 0 -38 14 -28 30 8
14 62 13 71 -1z m-2121 -149 c0 -18 -5 -35 -12 -37 -15 -5 -26 31 -18 58 10
31 30 17 30 -21z m240 0 c0 -35 -21 -53 -31 -26 -9 23 5 68 19 63 7 -2 12 -19
12 -37z m240 20 c8 -26 -3 -62 -18 -57 -7 2 -13 14 -15 26 -7 45 20 71 33 31z
m241 -34 c-3 -14 -13 -26 -21 -26 -20 0 -28 35 -15 61 11 19 14 20 27 6 10
-10 13 -24 9 -41z m534 8 c0 -6 -7 -17 -16 -25 -13 -10 -17 -10 -25 2 -12 20
-11 43 3 57 10 10 15 9 25 -5 7 -9 13 -22 13 -29z m225 6 c0 -18 -5 -35 -12
-37 -15 -5 -26 31 -18 58 10 31 30 17 30 -21z m241 15 c8 -31 -2 -58 -19 -53
-14 5 -21 42 -13 64 8 22 25 17 32 -11z m239 5 c8 -26 -3 -62 -18 -57 -7 2
-13 14 -15 26 -7 45 20 71 33 31z m-1155 -548 c22 -18 22 -24 21 -180 -1 -89
1 -162 4 -162 3 0 23 13 43 30 76 60 173 76 248 39 35 -16 49 -32 71 -77 l28
-57 0 -228 c0 -215 -1 -229 -19 -243 -26 -19 -65 -18 -88 3 -16 15 -18 35 -18
215 0 214 -7 251 -51 282 -47 32 -129 13 -182 -42 l-26 -27 -3 -208 c-3 -193
-4 -210 -22 -223 -26 -19 -65 -18 -88 3 -17 15 -18 42 -18 433 0 429 1 439 40
453 26 9 37 7 60 -11z m2138 -9 c9 -13 12 -108 12 -392 0 -207 4 -381 8 -387
4 -7 16 -13 26 -15 28 -6 43 -56 23 -77 -24 -23 -101 -20 -135 5 -47 35 -50
69 -51 471 l-1 373 26 25 c19 20 31 24 52 19 15 -3 33 -13 40 -22z m-5569 -61
c22 -17 22 -19 19 -347 l-3 -330 -28 -48 c-15 -26 -47 -60 -69 -75 -35 -23
-54 -28 -123 -30 -102 -5 -159 10 -202 53 -53 53 -40 115 24 115 10 0 30 -13
45 -30 24 -28 31 -30 92 -30 58 0 69 3 96 28 43 39 50 92 50 408 0 271 0 273
22 288 29 21 51 20 77 -2z m1775 -44 c11 -15 16 -45 16 -90 l0 -68 68 0 c73 0
92 -10 92 -46 0 -35 -36 -54 -102 -54 l-58 0 0 -180 c0 -110 4 -188 11 -203
13 -29 48 -47 91 -47 35 0 68 -24 68 -50 0 -32 -29 -44 -121 -48 l-89 -4 -34
36 c-47 49 -56 101 -56 316 l0 180 -23 0 c-33 0 -67 28 -67 55 0 28 12 37 59
45 l35 5 11 78 c7 48 17 82 25 87 26 16 58 11 74 -12z m-640 -151 c21 -7 48
-24 58 -38 40 -53 -9 -97 -70 -65 -48 25 -135 21 -168 -7 -35 -30 -35 -73 -1
-103 14 -12 58 -34 99 -49 101 -39 144 -68 168 -115 45 -87 11 -185 -81 -233
-50 -27 -60 -29 -144 -25 -65 3 -105 11 -142 27 -69 30 -80 44 -63 77 19 35
50 39 96 12 31 -18 54 -23 112 -23 68 0 75 2 98 28 53 62 15 116 -113 163 -93
34 -172 102 -175 150 -5 108 39 176 132 202 48 14 147 13 194 -1z m1330 -21
c26 -15 58 -45 73 -67 43 -66 69 -219 41 -247 -8 -8 -68 -12 -203 -12 -106 0
-194 -3 -198 -6 -11 -12 22 -97 50 -126 57 -61 129 -78 222 -54 33 9 67 13 75
10 25 -10 30 -43 9 -66 -31 -35 -77 -48 -171 -48 -79 0 -95 3 -151 31 -101 51
-149 131 -158 265 -11 161 63 291 194 340 59 22 161 13 217 -20z m660 11 c37
-25 47 -49 32 -78 -13 -27 -40 -29 -111 -10 -52 13 -104 0 -149 -40 -50 -44
-69 -101 -65 -197 4 -70 8 -86 34 -124 17 -24 46 -51 65 -60 45 -23 137 -24
168 -2 52 36 107 -21 66 -68 -31 -34 -78 -48 -166 -48 -102 0 -163 25 -224 92
-53 57 -77 128 -77 229 0 160 79 273 223 320 42 14 175 4 204 -14z m1319 9
c18 -7 45 -27 59 -44 48 -57 53 -89 53 -330 0 -210 -1 -224 -19 -238 -26 -19
-65 -18 -88 3 -16 15 -18 35 -18 215 0 214 -7 251 -51 282 -47 32 -129 13
-182 -42 l-26 -27 -3 -208 c-3 -193 -4 -210 -22 -223 -26 -19 -65 -18 -88 3
-17 15 -18 38 -18 299 l0 284 25 16 c37 24 72 6 81 -41 3 -19 9 -35 11 -35 3
0 21 14 41 31 73 64 171 86 245 55z m682 -13 c54 -28 110 -86 137 -142 20 -40
23 -62 23 -161 0 -105 -2 -119 -27 -165 -56 -106 -137 -154 -259 -155 -89 0
-158 29 -210 88 -59 67 -74 115 -74 232 0 89 4 113 24 158 28 62 103 134 164
156 58 21 169 16 222 -11z m997 17 c20 -6 58 -25 85 -43 150 -100 175 -364 48
-505 -64 -72 -126 -96 -231 -90 -71 4 -88 8 -132 37 -98 63 -149 177 -139 314
7 98 40 170 104 227 70 62 174 85 265 60z m763 -6 c130 -7 135 -9 135 -44 0
-35 -23 -50 -75 -50 l-36 0 17 -31 c25 -48 21 -139 -7 -191 -44 -79 -127 -115
-241 -104 -74 7 -88 -3 -88 -58 0 -43 31 -53 183 -59 205 -9 257 -40 257 -152
0 -86 -43 -140 -148 -188 -40 -18 -65 -22 -167 -22 -108 0 -125 2 -170 25 -85
43 -116 118 -80 194 9 18 29 43 46 55 30 23 30 23 10 37 -49 35 -46 132 5 185
l27 28 -31 35 c-75 86 -68 204 18 287 56 55 100 70 190 63 36 -2 106 -7 155
-10z m-6511 -117 l69 -119 58 109 c31 59 62 114 69 121 25 28 90 1 90 -38 0
-9 -31 -69 -70 -134 -38 -65 -70 -125 -70 -133 0 -9 34 -68 75 -132 41 -65 75
-127 75 -139 0 -28 -42 -56 -73 -48 -16 4 -45 42 -96 126 -40 66 -76 120 -79
120 -4 0 -31 -46 -61 -103 -79 -149 -103 -170 -149 -127 -34 32 -36 27 69 196
38 61 69 114 69 119 0 5 -31 59 -70 121 -38 61 -70 120 -70 130 0 30 31 55 64
52 27 -3 38 -15 100 -121z m6815 114 c12 -7 46 -92 101 -250 46 -133 87 -241
91 -241 3 0 37 105 75 232 81 273 100 303 159 244 17 -17 22 -30 18 -47 -19
-74 -228 -661 -248 -695 -51 -87 -125 -128 -220 -122 -43 3 -50 6 -53 26 -2
13 4 34 12 48 14 20 25 24 62 24 58 0 96 35 118 110 l16 54 -110 276 c-61 151
-110 285 -110 297 0 22 34 53 58 53 7 0 21 -4 31 -9z"/>
<path d="M6171 6238 c-45 -30 -70 -66 -81 -111 l-8 -37 154 0 c102 0 154 4
154 11 0 37 -26 101 -51 125 -41 39 -120 45 -168 12z"/>
<path d="M8867 6246 c-49 -18 -64 -32 -89 -80 -26 -50 -35 -163 -18 -225 6
-25 28 -61 49 -84 33 -35 44 -41 92 -44 66 -6 111 20 143 82 25 48 34 178 17
237 -16 53 -65 105 -109 118 -44 12 -38 12 -85 -4z"/>
<path d="M9905 6245 c-49 -18 -81 -55 -100 -119 -30 -101 -13 -203 44 -268 33
-37 43 -41 91 -45 46 -4 61 -1 90 19 54 36 83 103 83 196 -1 119 -45 201 -122
222 -43 12 -37 12 -86 -5z"/>
<path d="M10545 6237 c-80 -80 -43 -220 63 -234 75 -10 132 46 132 132 0 84
-47 135 -126 135 -28 0 -44 -8 -69 -33z"/>
<path d="M10491 5684 c-68 -87 24 -174 170 -161 95 8 159 54 159 114 0 50 -25
60 -177 67 l-131 7 -21 -27z"/>
</g>
</svg>
